<?xml version="1.0" encoding="UTF-8" standalone="no" ?>
<!DOCTYPE svg PUBLIC "-//W3C//DTD SVG 1.1//EN" "http://www.w3.org/Graphics/SVG/1.1/DTD/svg11.dtd">
<svg xmlns="http://www.w3.org/2000/svg" xmlns:xlink="http://www.w3.org/1999/xlink" version="1.1" width="1600" height="1600" viewBox="0 0 1600 1600" xml:space="preserve">
<desc>Created with Fabric.js 3.6.6</desc>
<defs>
</defs>
<g transform="matrix(2.39 0 0 2.39 819.71 808.94)"  >
<linearGradient id="SVGID_16" gradientUnits="objectBoundingBox" gradientTransform="matrix(-0.45 -0.89 0.89 -0.45 0.28 1.17)"  x1="0.5" y1="0" x2="0.5" y2="1">
<stop offset="0%" style="stop-color:rgb(97,91,152);stop-opacity: 1"/>
<stop offset="100%" style="stop-color:rgb(255,49,46);stop-opacity: 1"/>
</linearGradient>
<rect style="stroke: none; stroke-width: 1; stroke-dasharray: none; stroke-linecap: butt; stroke-dashoffset: 0; stroke-linejoin: miter; stroke-miterlimit: 4; fill: url(#SVGID_16); fill-rule: nonzero; opacity: 1;"  x="-350" y="-350" rx="0" ry="0" width="700" height="700" />
</g>
<g transform="matrix(1.23 0 0 1.23 796.97 796.08)"  >
<g style=""   >
		<g transform="matrix(1 0 0 1 2.49 3.1)"  >
<path style="stroke: none; stroke-width: 1; stroke-dasharray: none; stroke-linecap: butt; stroke-dashoffset: 0; stroke-linejoin: miter; stroke-miterlimit: 4; fill: rgb(255,255,255); fill-rule: evenodd; opacity: 1;"  transform=" translate(-251.99, -104.6)" d="M 333.466 8.905 C 332.04 9.515 328.62 16.237 322.026 31.388 C 312.62 53 312.62 53 287.31 53 C 262 53 262 53 262 61.5 C 262 69.9 262.029 70 264.5 70 C 267 70 267 70 267.017 98.75 C 267.036 129.92 267.816 136.795 272.336 145.631 C 275.533 151.879 281.177 157.297 287.5 160.186 C 294.51 163.389 311.263 163.503 318 160.393 C 324.664 157.317 328.768 153.406 331.928 147.117 C 336.489 138.038 337 133.335 337 100.451 C 337 70 337 70 339.5 70 C 341.969 70 342 69.897 342 61.55 C 342 53.1 342 53.1 336.544 52.8 C 331.089 52.5 331.089 52.5 339.009 34.5 C 343.366 24.6 346.946 15.963 346.965 15.306 C 346.984 14.649 345.988 12.946 344.75 11.522 C 342.307 8.71 336.867 7.448 333.466 8.905 M 405 39 C 405 53 405 53 397.565 53 C 388.944 53 386.526 53.738 382.75 57.519 C 380 60.273 380 60.273 380 56.636 C 380 53 380 53 365 53 C 350 53 350 53 350 107 C 350 161 350 161 365 161 C 380 161 380 161 380.024 127.25 C 380.037 108.688 380.465 91.7 380.975 89.5 C 382.6 82.486 386.648 80.859 395.75 83.565 C 397.792 84.171 398 83.899 398 80.617 C 398 77.15 398.145 77 401.5 77 C 405 77 405 77 405 119 C 405 161 405 161 419.5 161 C 434 161 434 161 434 119 C 434 77 434 77 439.5 77 C 445 77 445 77 445 65 C 445 53 445 53 439.5 53 C 434 53 434 53 434 39 C 434 25 434 25 419.5 25 C 405 25 405 25 405 39 M 127 50.387 C 119.552 52.039 115.955 54.108 111.259 59.444 C 104.099 67.578 103.5 71.131 103.5 105.5 C 103.5 132.146 103.71 136.139 105.377 141.218 C 107.736 148.404 112.739 154.313 119.362 157.734 C 126.279 161.307 141.879 162.168 150.51 159.453 C 157.797 157.161 164.941 150.8 168.114 143.779 C 170.474 138.558 170.5 138.137 170.5 105.5 C 170.5 73.672 170.422 72.332 168.314 67.767 C 163.486 57.315 156.842 52.151 145.566 50.087 C 138.253 48.747 134.091 48.815 127 50.387 M 198.871 50.516 C 192.566 52.524 187.555 58.183 186.108 64.933 C 184.697 71.512 184.614 136.663 186.007 144.114 C 188.924 159.717 203.695 166.617 218.185 159.144 C 224 156.145 224 156.145 224 164.872 C 224 173.893 223.2 176 219.775 176 C 217.708 176 216 172.352 216 167.935 C 216 165 216 165 202.402 165 C 188.804 165 188.804 165 189.47 171.25 C 191.567 190.933 200.101 199.604 218.507 200.752 C 230.965 201.529 238.885 199.21 245.142 192.953 C 253.187 184.908 253 186.754 253 115.318 C 253 53 253 53 238.5 53 C 224.279 53 224 53.042 224 55.174 C 224 57.349 224 57.349 221.75 55.291 C 215.937 49.976 206.652 48.038 198.871 50.516 M 23 53.608 C 23 54.492 27.709 79.014 33.464 108.101 C 43.928 160.986 43.928 160.986 40.104 179.993 C 36.28 199 36.28 199 51.057 199 C 65.834 199 65.834 199 66.963 193.75 C 71.419 173.029 96 53.95 96 53.084 C 96 52.356 91.281 52 81.608 52 C 67.506 52 67.206 52.045 66.691 54.25 C 66.401 55.487 64.74 65.725 62.998 77 C 61.257 88.275 59.579 98.175 59.269 99 C 58.959 99.825 57.198 90.15 55.355 77.5 C 53.512 64.85 51.793 53.938 51.534 53.25 C 51.188 52.332 47.339 52 37.031 52 C 24.807 52 23 52.207 23 53.608 M 133.912 77.605 C 132.775 78.976 132.5 84.409 132.5 105.5 C 132.5 133.447 132.835 135.457 137.387 134.798 C 141.453 134.21 141.971 130.899 141.971 105.5 C 141.971 80.101 141.453 76.79 137.387 76.202 C 136.253 76.038 134.689 76.669 133.912 77.605 M 214.965 81.75 C 214.236 84.202 213.962 93.843 214.175 109.599 C 214.515 134.773 214.907 137 219 137 C 223.083 137 223.485 134.748 223.828 109.994 C 224.211 82.279 223.566 78 219.002 78 C 216.491 78 215.924 78.527 214.965 81.75 M 457.5 131.356 C 445.156 137.071 444.863 154.271 457 160.754 C 467.65 166.442 480.891 158.55 480.978 146.462 C 481.007 142.459 477.19 135.12 473.791 132.644 C 470.358 130.144 461.613 129.452 457.5 131.356" stroke-linecap="round" />
</g>
		<g transform="matrix(1 0 0 1 -249.5 -101.5)"  >
<path style="stroke: none; stroke-width: 1; stroke-dasharray: none; stroke-linecap: butt; stroke-dashoffset: 0; stroke-linejoin: miter; stroke-miterlimit: 4; fill: rgb(255,252,252); fill-rule: evenodd; opacity: 1;"  transform=" translate(0, 0)" d="" stroke-linecap="round" />
</g>
		<g transform="matrix(1 0 0 1 -249.5 -101.5)"  >
<path style="stroke: none; stroke-width: 1; stroke-dasharray: none; stroke-linecap: butt; stroke-dashoffset: 0; stroke-linejoin: miter; stroke-miterlimit: 4; fill: rgb(252,252,252); fill-rule: evenodd; opacity: 1;"  transform=" translate(0, 0)" d="" stroke-linecap="round" />
</g>
</g>
</g>
</svg>